<svg width="60" height="60" viewBox="0 0 60 60" fill="none" xmlns="http://www.w3.org/2000/svg">
<path d="M30.0013 3.75721C30.0013 3.75721 45.4741 3.06534 53.6774 18.5624H28.6847C28.6847 18.5624 23.9681 18.4109 19.939 24.1124C18.7816 26.5055 17.5376 28.9707 18.9337 33.8289C16.9225 30.4338 8.25656 15.3982 8.25656 15.3982C8.25656 15.3982 14.3691 4.36986 30.0011 3.75721H30.0013Z" fill="#EF3F36"/>
<path d="M52.8742 43.0982C52.8742 43.0982 45.7344 56.8004 28.1711 56.1228C30.3413 52.3818 40.6709 34.5567 40.6709 34.5567C40.6709 34.5567 43.1666 30.5635 40.2225 24.235C38.7249 22.0366 37.1986 19.7373 32.2799 18.5118C36.2368 18.4759 53.6339 18.5118 53.6339 18.5118C53.6339 18.5118 60.1512 29.3022 52.8742 43.0982Z" fill="#FCD900"/>
<path d="M7.23633 43.2063C7.23633 43.2063 -1.10424 30.1959 8.27066 15.3763C10.4336 19.1173 20.7633 36.9426 20.7633 36.9426C20.7633 36.9426 22.9914 41.0944 29.9574 41.714C32.6124 41.5196 35.3756 41.3538 38.9059 37.7282C36.9597 41.1593 28.2284 56.1518 28.2284 56.1518C28.2284 56.1518 15.5839 56.3825 7.23612 43.2063H7.23633Z" fill="#61BC5B"/>
<path d="M28.1639 56.2525L31.6794 41.635C31.6794 41.635 35.5424 41.332 38.7833 37.7931C36.7721 41.3179 28.1639 56.2525 28.1639 56.2525V56.2525Z" fill="#5AB055"/>
<path d="M18.2247 30.167C18.2247 23.7232 23.4693 18.4974 29.9362 18.4974C36.403 18.4974 41.6476 23.7232 41.6476 30.167C41.6476 36.6109 36.403 41.8365 29.9362 41.8365C23.4693 41.8293 18.2247 36.6109 18.2247 30.167V30.167Z" fill="white"/>
<path d="M20.185 30.1671C20.185 24.8045 24.5471 20.4508 29.9363 20.4508C35.3181 20.4508 39.6874 24.7973 39.6874 30.1671C39.6874 35.5299 35.3255 39.8836 29.9363 39.8836C24.5543 39.8836 20.185 35.5299 20.185 30.1671V30.1671Z" fill="url(#paint0_linear_1_13599)"/>
<path d="M53.6266 18.519L39.1518 22.7501C39.1518 22.7501 36.9673 19.5569 32.2727 18.519C36.3453 18.4973 53.6266 18.519 53.6266 18.519V18.519Z" fill="#EACA05"/>
<path d="M18.6516 33.2957C16.6187 29.7853 8.25659 15.3982 8.25659 15.3982L18.977 25.9651C18.977 25.9651 17.8774 28.2212 18.2899 31.4503L18.6514 33.2957H18.6516Z" fill="#DF3A32"/>
<defs>
<linearGradient id="paint0_linear_1_13599" x1="29.9358" y1="20.588" x2="29.9358" y2="39.2987" gradientUnits="userSpaceOnUse">
<stop stop-color="#86BBE5"/>
<stop offset="1" stop-color="#1072BA"/>
</linearGradient>
</defs>
</svg>
