<svg width="60" height="60" viewBox="0 0 60 60" fill="none" xmlns="http://www.w3.org/2000/svg">
<path d="M30 3.75C15.5215 3.75 3.75 15.5215 3.75 30C3.75 44.4785 15.5215 56.25 30 56.25C44.4785 56.25 56.25 44.4785 56.25 30C56.25 15.5215 44.4785 3.75 30 3.75Z" fill="#81B441"/>
<path d="M39.4458 14.9393C26.7187 15.7813 22.8759 27.6548 22.5504 33.7296C22.5504 34.729 19.3411 32.7059 21.25 23.9844C21.4136 23.2367 21.25 22.3438 21.25 22.3438C14.6222 28.1736 15.1921 39.196 23.3399 43.6773C29.656 47.1511 37.8668 44.9405 41.4986 38.4666C45.7619 31.0452 41.9723 16.3604 39.4458 14.9393Z" fill="white"/>
</svg>
