<svg width="60" height="60" viewBox="0 0 60 60" fill="none" xmlns="http://www.w3.org/2000/svg">
<path d="M1.29593 41.1653C-0.949643 42.7379 -0.533858 45.447 4.58943 47.1411C9.71271 48.8352 15.6676 49.1855 20.9072 48.2419C20.7575 48.2419 21.2066 48.2419 20.9072 48.2419V42.8952L15.8173 44.625C13.8711 45.254 11.9249 45.4113 9.97879 44.9395C8.48174 44.4677 8.78115 43.5242 10.5776 42.7379L20.9072 38.9637V33.1452L6.53558 38.3347C4.73913 38.9637 2.94268 39.9073 1.29593 41.1653ZM36.0274 17.5766V32.8306C42.1653 35.9758 46.9558 32.8306 46.9558 24.6532C46.9558 16.3185 44.1114 12.5444 35.8777 9.55645C31.5362 7.98387 27.0451 6.56855 22.554 5.625V51.0726L33.0333 54.375V16.1613C33.0333 14.4315 33.0333 13.1734 34.2309 13.6452C35.8777 14.1169 36.0274 15.8468 36.0274 17.5766ZM55.489 37.5484C51.1475 35.9758 46.5067 35.3468 42.0156 35.8185C39.5211 35.9823 37.1801 36.7254 34.8297 37.5484V43.6815L44.5605 39.9073C46.5067 39.2782 48.4529 39.121 50.399 39.5927C51.8961 40.0645 51.5967 41.0081 49.8002 41.7944L34.8297 47.6129V53.5887L55.489 45.5685C56.986 44.9395 58.3334 44.1532 59.531 42.8952C60.5789 41.3226 60.1298 39.121 55.489 37.5484Z" fill="#0070D1"/>
</svg>
