<svg width="60" height="60" viewBox="0 0 60 60" fill="none" xmlns="http://www.w3.org/2000/svg">
<path fill-rule="evenodd" clip-rule="evenodd" d="M24.7287 21.8237C24.7009 21.8237 24.647 21.8237 24.6192 21.8237C24.1575 21.7674 23.7773 21.3443 23.7773 20.8648C23.7495 20.4134 23.5046 9.86384 29.4558 7.46633C30.9505 6.87392 32.3377 6.98668 33.5061 7.86127C34.9452 8.90491 35.9781 10.9922 36.6031 14.0386C37.037 16.1823 37.1187 18.0439 37.1187 18.1286C37.1465 18.5799 36.7941 18.9185 36.3305 18.8338C35.8687 18.7773 35.4886 18.3543 35.4886 17.9029C35.407 15.9849 34.782 10.7102 32.7179 9.18691C32.0651 8.70744 31.2491 8.65097 30.2717 9.04591C25.1626 11.105 25.4074 21.0058 25.4074 21.1185C25.4074 21.5135 25.1367 21.8237 24.7287 21.8237Z" fill="#595961"/>
<path opacity="0.46" fill-rule="evenodd" clip-rule="evenodd" d="M33.2055 7.91751C32.1188 7.12763 30.8428 7.01487 29.4556 7.55081C27.0373 8.53798 25.3257 11.1331 24.4837 15.0822C23.8587 17.9874 23.9403 20.6108 23.9403 20.7236C23.9403 20.8646 23.9941 21.0057 24.1035 21.1185C24.2111 21.2313 24.3205 21.316 24.4559 21.316C24.4837 21.316 24.5115 21.316 24.5375 21.316C24.7823 21.316 24.9733 21.1185 24.9733 20.8646C24.9733 20.7518 24.7285 10.6817 29.9731 8.56622C31.032 8.14322 31.9556 8.19951 32.7178 8.76368C34.9172 10.3715 35.57 15.8156 35.6516 17.7619C35.6516 18.0439 35.8964 18.3261 36.195 18.3541C36.4676 18.3823 36.6845 18.1849 36.6845 17.9029C36.6567 17.5644 36.3582 10.2305 33.2055 7.91751Z" fill="#B2B2C2"/>
<path opacity="0.46" fill-rule="evenodd" clip-rule="evenodd" d="M24.4837 20.9775C24.4559 20.9775 24.4559 20.9775 24.4299 20.9775C24.2667 20.9492 24.1295 20.78 24.1035 20.6108C24.1035 20.4978 24.022 17.9311 24.6469 15.0257C25.4611 11.1613 27.1746 8.5944 29.5372 7.63529C30.8688 7.09935 32.065 7.2123 33.098 7.94571C36.1412 10.174 36.4398 17.3951 36.4398 17.7054C36.4398 17.8746 36.3044 17.9874 36.1412 17.9593C35.978 17.9311 35.8426 17.7901 35.8148 17.5926C35.8148 17.5079 35.5162 10.4279 32.7715 8.39693C31.9555 7.80471 30.9504 7.72 29.8099 8.17123C24.4837 10.3997 24.7285 20.6108 24.7285 20.7235C24.7545 20.8645 24.6469 20.9775 24.4837 20.9775Z" fill="#B2B2C2"/>
<path opacity="0.62" fill-rule="evenodd" clip-rule="evenodd" d="M26.6851 12.9104C26.9021 12.4874 27.1191 12.0643 27.3101 11.613C27.2285 11.754 26.6851 13.2209 25.0271 12.9951C24.9993 12.9951 26.0045 13.3054 26.6851 12.9104Z" fill="#595961"/>
<path opacity="0.62" fill-rule="evenodd" clip-rule="evenodd" d="M26.086 14.7154C26.2492 14.2639 26.4124 13.7845 26.5218 13.3333C26.468 13.5025 26.1954 15.0256 24.4559 15.0256C24.4559 15.0256 25.4611 15.2231 26.086 14.7154Z" fill="#595961"/>
<path opacity="0.62" fill-rule="evenodd" clip-rule="evenodd" d="M35.6239 11.077C35.407 10.5691 35.1621 10.0896 34.9173 9.58191C34.9989 9.75114 35.8149 11.359 34.8914 12.5154C34.8914 12.5154 35.598 11.9514 35.6239 11.077Z" fill="#595961"/>
<path opacity="0.62" fill-rule="evenodd" clip-rule="evenodd" d="M34.1311 8.53836C33.6953 8.17165 33.2612 7.83318 32.8254 7.52295C32.9886 7.66395 34.4295 8.70759 34.3479 10.2874C34.3201 10.2874 34.565 9.35647 34.1311 8.53836Z" fill="#595961"/>
<path opacity="0.62" fill-rule="evenodd" clip-rule="evenodd" d="M27.4731 11.3587C27.7995 11.0202 28.0702 10.6535 28.3687 10.2585C28.2612 10.3713 27.3637 11.5279 25.7614 11.1047C25.7614 11.1047 26.6849 11.6126 27.4731 11.3587Z" fill="#595961"/>
<path opacity="0.62" fill-rule="evenodd" clip-rule="evenodd" d="M28.4782 10.0613C28.8584 9.7793 29.2107 9.49712 29.5649 9.18689C29.4296 9.2716 28.315 10.2023 26.7665 9.52536C26.7665 9.52536 27.6622 10.1741 28.4782 10.0613Z" fill="#595961"/>
<path opacity="0.62" fill-rule="evenodd" clip-rule="evenodd" d="M29.9453 9.13005C30.407 8.98905 30.8429 8.81982 31.2769 8.65059C31.1137 8.70687 29.7282 9.21458 28.3689 8.1427C28.3967 8.1427 29.1033 8.98905 29.9453 9.13005Z" fill="#595961"/>
<path opacity="0.62" fill-rule="evenodd" clip-rule="evenodd" d="M31.2769 8.62285C31.657 8.67932 32.0372 8.70757 32.4174 8.7358C32.282 8.70757 31.0857 8.62286 30.407 7.49451C30.407 7.49451 30.6797 8.25615 31.2769 8.62285Z" fill="#595961"/>
<path opacity="0.62" fill-rule="evenodd" clip-rule="evenodd" d="M32.8532 9.24283C33.124 9.55325 33.4244 9.86348 33.7489 10.1455C33.6414 10.0327 32.7179 9.10184 32.9349 7.94543C32.907 7.94543 32.6085 8.59413 32.8532 9.24283Z" fill="#595961"/>
<path opacity="0.74" fill-rule="evenodd" clip-rule="evenodd" d="M36.1412 17.5645C36.1412 17.2541 35.8427 10.1176 32.881 7.94584C32.3098 7.52267 31.6848 7.3252 31.032 7.3252C30.5424 7.3252 30.0268 7.43795 29.4835 7.66366C27.1189 8.59454 25.4611 11.105 24.6469 14.9411C24.022 17.8183 24.1035 20.3852 24.1035 20.4979C24.1035 20.5827 24.1851 20.6672 24.2667 20.6672H24.2926C24.3742 20.6672 24.4299 20.6109 24.4299 20.5262C24.4299 20.4134 24.1573 10.1176 29.6188 7.91761C30.815 7.43795 31.848 7.52267 32.7178 8.17137C35.5422 10.2306 35.8426 17.4235 35.8426 17.508C35.8426 17.5927 35.9242 17.6773 36.0058 17.6773C36.0058 17.6773 36.0058 17.6773 36.0318 17.6773C36.0874 17.7055 36.1412 17.649 36.1412 17.5645Z" fill="url(#paint0_linear_30_767)"/>
<path fill-rule="evenodd" clip-rule="evenodd" d="M36.603 14.0388C35.9781 10.9924 34.9451 8.93321 33.506 7.86133C32.7179 7.29734 31.8741 7.0434 30.9505 7.09987C31.6849 7.15616 32.3637 7.4101 32.9886 7.86133C34.4296 8.90516 35.4626 10.9924 36.0876 14.0388C36.5215 16.1826 36.603 18.0442 36.603 18.1289C36.603 18.4673 36.4399 18.7213 36.1673 18.8058C36.2229 18.834 36.2767 18.834 36.3046 18.834C36.7663 18.8905 37.1187 18.5801 37.0927 18.1289C37.1187 18.0442 37.037 16.2108 36.603 14.0388Z" fill="url(#paint1_linear_30_767)"/>
<path fill-rule="evenodd" clip-rule="evenodd" d="M29.7561 9.04594C24.6469 11.105 24.8916 21.0058 24.8916 21.1186C24.8916 21.457 24.7285 21.711 24.4559 21.7955C24.5115 21.8238 24.5375 21.8237 24.5932 21.8237C24.6191 21.8237 24.6747 21.8237 24.7007 21.8237C25.1087 21.8237 25.3794 21.5135 25.3794 21.1186C25.3794 21.0058 25.1365 11.1332 30.2439 9.07418C30.5981 8.93318 30.9244 8.84847 31.223 8.82023C30.7872 8.73571 30.2995 8.82023 29.7561 9.04594Z" fill="url(#paint2_linear_30_767)"/>
<path fill-rule="evenodd" clip-rule="evenodd" d="M37.4988 11.4997L14.4565 18.8899C14.4565 18.8899 13.4791 19.172 13.2344 19.4823C12.9896 19.7925 12.9358 20.6669 12.9358 20.6669L9.375 49.1564L36.1135 54.3465L38.1794 11.4714C37.8809 11.415 37.5804 11.4714 37.4988 11.4997Z" fill="url(#paint3_linear_30_767)"/>
<path fill-rule="evenodd" clip-rule="evenodd" d="M45.4621 15.1667C45.4621 15.1667 45.4343 14.9409 45.2989 14.8564C45.1895 14.7717 45.0541 14.7717 45.0541 14.7717L41.2765 14.4897L38.5058 11.6408C38.3964 11.5561 38.287 11.4998 38.1516 11.4716L36.0876 54.3466L50.5694 51.1028L45.4621 15.1667Z" fill="url(#paint4_linear_30_767)"/>
<path fill-rule="evenodd" clip-rule="evenodd" d="M27.9888 35.3065C27.5808 34.7424 27.093 34.2347 26.6034 33.7832C26.1138 33.332 25.5983 32.9653 25.0809 32.6268C24.7285 32.4011 24.4021 32.1754 24.1295 31.9497C23.8588 31.7242 23.6418 31.4985 23.4786 31.301C23.3154 31.0753 23.18 30.8778 23.0984 30.6523C23.0168 30.4266 22.9889 30.2009 22.9889 29.9752C22.9889 29.665 23.0706 29.3547 23.18 29.1008C23.2875 28.847 23.4785 28.6213 23.6677 28.4238C23.8865 28.2264 24.1295 28.0854 24.4299 27.9726C24.7285 27.8597 25.0808 27.8034 25.461 27.7752C25.869 27.7469 26.277 27.7752 26.6572 27.8034C27.0374 27.8314 27.3916 27.9162 27.7439 28.0007C28.0703 28.0854 28.3967 28.1981 28.6675 28.3111C28.9401 28.4239 29.2108 28.5366 29.4018 28.6496L31.1952 23.1209C30.9245 22.9799 30.5981 22.8388 30.2439 22.7542C29.8637 22.6413 29.4557 22.5568 28.9939 22.5003C28.5321 22.444 28.0425 22.4158 27.5269 22.4158C27.0114 22.4158 26.4681 22.444 25.8969 22.5285C24.6748 22.6978 23.5861 23.0362 22.6088 23.5439C21.6853 24.0236 20.8692 24.644 20.1905 25.4057C19.5377 26.1391 19.0221 26.9853 18.6419 27.9444C18.2877 28.8753 18.0708 29.9189 18.017 31.0471C17.9892 31.7242 18.0429 32.3447 18.2061 32.9088C18.3415 33.473 18.5603 34.0089 18.8589 34.5166C19.1297 35.0244 19.4839 35.4758 19.864 35.8988C20.2442 36.3219 20.706 36.7169 21.1678 37.0836C21.548 37.3656 21.8744 37.6476 22.147 37.9015C22.4177 38.1555 22.6366 38.4092 22.7979 38.6914C22.9611 38.9452 23.0705 39.1991 23.1521 39.4811C23.2337 39.735 23.2616 40.017 23.2337 40.2992C23.2337 40.5812 23.1522 40.8632 23.0428 41.0889C22.9352 41.3146 22.7979 41.5403 22.581 41.7096C22.3918 41.8788 22.147 41.9915 21.8744 42.048C21.6037 42.1043 21.2773 42.1325 20.9231 42.0763C20.5169 42.0198 20.1088 41.907 19.7287 41.7376C19.3485 41.5966 18.9665 41.3991 18.6142 41.2017C18.2618 41.0044 17.9354 40.7787 17.6628 40.5812C17.3642 40.3837 17.1194 40.158 16.9303 39.9888L15.7062 44.1918C15.8972 44.4738 16.168 44.7277 16.4666 44.9815C16.7671 45.2354 17.1195 45.4892 17.5274 45.7431C17.9354 45.9688 18.3694 46.1943 18.8312 46.3918C19.293 46.5893 19.8103 46.7585 20.3259 46.8997H20.3537H20.3796H20.4075H20.4353C21.548 47.1535 22.6088 47.2099 23.6139 47.0689C24.6469 46.9278 25.5982 46.5611 26.4124 45.9971C27.2543 45.4046 27.9349 44.6148 28.4505 43.5711C28.9679 42.5275 29.2664 41.2581 29.3202 39.8196C29.348 38.9169 29.2387 38.1272 28.9939 37.3938C28.7491 36.5476 28.3968 35.8988 27.9888 35.3065Z" fill="url(#paint5_linear_30_767)"/>
<path opacity="0.226763" fill-rule="evenodd" clip-rule="evenodd" d="M15.8824 44.4216C15.8194 44.3468 15.76 44.2704 15.7062 44.192L16.9303 39.989C16.9469 40.0047 16.9655 40.0209 16.984 40.0375C17.1658 40.1999 17.3921 40.4022 17.6628 40.5814C17.9354 40.7789 18.2618 41.0046 18.6142 41.202C18.9666 41.3993 19.3485 41.5968 19.7287 41.738C20.1088 41.9072 20.5169 42.02 20.9231 42.0765C21.2773 42.1327 21.6037 42.1047 21.8744 42.0482C22.147 41.9917 22.3918 41.879 22.581 41.7098C22.7979 41.5405 22.9352 41.3148 23.0428 41.0891C23.1522 40.8634 23.2337 40.5814 23.2337 40.2994C23.2616 40.0172 23.2337 39.7352 23.1521 39.4813C23.0705 39.1993 22.9611 38.9454 22.7979 38.6916C22.644 38.4234 22.44 38.1809 22.1859 37.9395C22.3195 38.0903 22.4326 38.2452 22.5272 38.4094C22.6904 38.6634 22.798 38.9171 22.8796 39.1993C22.9612 39.453 22.989 39.7352 22.9612 40.0172C22.9612 40.2994 22.8796 40.5814 22.772 40.8071C22.6626 41.0328 22.5272 41.2583 22.3102 41.4276C22.1192 41.5968 21.8744 41.7097 21.6037 41.766C21.3311 41.8225 21.0047 41.8507 20.6523 41.7943C20.2443 41.738 19.8363 41.625 19.4561 41.4558C19.0759 41.3148 18.6957 41.1173 18.3415 40.9199C17.9892 40.7224 17.6628 40.4969 17.3921 40.2994C17.1195 40.1202 16.8932 39.9179 16.7115 39.7555C16.6929 39.7389 16.6761 39.7227 16.6576 39.707L15.4355 43.9098C15.556 44.0894 15.71 44.2575 15.8824 44.4216ZM19.8863 35.9246C19.7843 35.8237 19.6861 35.7212 19.5915 35.617C19.2113 35.1938 18.859 34.7426 18.5863 34.2348C18.2878 33.727 18.0708 33.191 17.9354 32.627C17.7722 32.0629 17.7165 31.4422 17.7443 30.7653C17.7981 29.6369 18.017 28.5933 18.3694 27.6624C18.7495 26.7035 19.267 25.8573 19.9179 25.1239C20.5985 24.3623 21.4126 23.7416 22.3361 23.2621C23.3153 22.7544 24.4021 22.416 25.6242 22.2467C26.1954 22.162 26.7388 22.1338 27.2544 22.1338C27.7718 22.1338 28.2614 22.162 28.7231 22.2185C29.1849 22.275 29.5929 22.3595 29.9731 22.4724C30.3255 22.557 30.6519 22.698 30.9245 22.839L30.8818 22.9709C30.6852 22.8855 30.4701 22.8085 30.2439 22.7544C29.8637 22.6417 29.4557 22.557 28.9939 22.5005C28.5321 22.4442 28.0425 22.416 27.5269 22.416C27.0114 22.416 26.4681 22.4442 25.8969 22.5287C24.6748 22.698 23.5861 23.0364 22.6088 23.5443C21.6853 24.0238 20.8692 24.6442 20.1905 25.4059C19.5377 26.1393 19.0221 26.9855 18.6419 27.9446C18.2877 28.8755 18.0708 29.9191 18.017 31.0473C17.9892 31.7244 18.0429 32.3449 18.2061 32.909C18.3415 33.4732 18.5603 34.0091 18.8589 34.5168C19.1297 35.0245 19.4839 35.476 19.864 35.899C19.8715 35.9074 19.8789 35.9161 19.8863 35.9246ZM23.5768 31.4167C23.7252 31.5845 23.9107 31.7672 24.1295 31.9499C24.4021 32.1756 24.7285 32.4013 25.0809 32.627C25.5983 32.9655 26.1138 33.3322 26.6034 33.7834C26.7462 33.9148 26.8872 34.0509 27.0281 34.1918C26.8019 33.9486 26.5663 33.7185 26.3307 33.5014C25.843 33.05 25.3257 32.6833 24.8101 32.3449C24.4559 32.1191 24.1295 31.8936 23.8588 31.6679C23.7568 31.5838 23.664 31.4996 23.5768 31.4167Z" fill="black"/>
<path opacity="0.41" fill-rule="evenodd" clip-rule="evenodd" d="M42.1999 46.3642L41.2763 14.4899L41.1131 14.3207L41.549 45.9128C41.549 45.9128 37.7175 51.9491 37.1464 51.7799C36.3044 51.5261 38.8043 11.9512 38.8043 11.9512L38.5317 11.6692C38.4241 11.5845 38.2869 11.5282 38.1793 11.5L36.1412 53.7827L36.1134 54.3751L36.8199 53.4442L42.1999 46.3642Z" fill="url(#paint6_linear_30_767)"/>
<path fill-rule="evenodd" clip-rule="evenodd" d="M31.7923 13.3335C31.4678 14.6591 31.0598 15.9002 30.7612 16.6619C30.5702 17.1133 30.7872 17.5363 31.1952 17.5927C31.631 17.6492 32.1188 17.3388 32.282 16.8876C32.3098 16.8028 33.0423 14.9695 33.5059 12.7975V12.7693L31.7923 13.3335Z" fill="url(#paint7_linear_30_767)"/>
<path fill-rule="evenodd" clip-rule="evenodd" d="M19.5378 17.2822C19.1577 18.1284 18.7775 18.8618 18.5048 19.3695C18.2619 19.7926 18.3973 20.2439 18.8053 20.3566C19.2114 20.4978 19.7547 20.2439 19.9995 19.8207C20.0274 19.7644 20.8156 18.3823 21.5222 16.6333L19.5378 17.2822Z" fill="url(#paint8_linear_30_767)"/>
<path opacity="0.32" fill-rule="evenodd" clip-rule="evenodd" d="M36.1134 54.3464L42.1999 46.3636L50.625 51.1026L36.1134 54.3464Z" fill="url(#paint9_linear_30_767)"/>
<path opacity="0.19" fill-rule="evenodd" clip-rule="evenodd" d="M36.1134 54.3464L42.1461 46.3636L50.625 51.1026L36.1134 54.3464Z" fill="url(#paint10_linear_30_767)"/>
<path opacity="0.19" fill-rule="evenodd" clip-rule="evenodd" d="M36.1134 54.3464L42.1461 46.3636L50.625 51.1026L36.1134 54.3464Z" fill="url(#paint11_linear_30_767)"/>
<path opacity="0.6" fill-rule="evenodd" clip-rule="evenodd" d="M30.1901 32.0066C33.3428 36.4352 35.4624 41.2304 36.5213 45.8846L38.1793 11.4435C37.8808 11.3872 37.5803 11.4435 37.4987 11.4718L14.4564 18.8904C14.4564 18.8904 14.2393 18.9467 13.9667 19.0596C19.8103 21.1469 25.6521 25.6319 30.1901 32.0066Z" fill="url(#paint12_linear_30_767)"/>
<path fill-rule="evenodd" clip-rule="evenodd" d="M45.3246 14.8847C45.4619 14.9976 45.4619 15.1668 45.4619 15.1668L50.5154 51.0745L42.1998 46.3358L41.2762 14.4617L45.0001 14.7437C45.0261 14.7719 45.1892 14.7719 45.3246 14.8847Z" fill="url(#paint13_linear_30_767)"/>
<path fill-rule="evenodd" clip-rule="evenodd" d="M44.7278 14.9697C44.7278 14.9697 44.891 14.9697 45.0264 15.1107C45.1617 15.2236 45.1895 15.3928 45.1895 15.3928L50.1633 50.9058L50.5435 51.1315L45.4881 15.1954C45.4881 15.1954 45.4621 15.0261 45.3527 14.9134C45.2173 14.8004 45.0264 14.8004 45.0264 14.8004L41.3043 14.5184L44.7278 14.9697Z" fill="url(#paint14_linear_30_767)"/>
<path fill-rule="evenodd" clip-rule="evenodd" d="M9.375 49.156L36.1135 54.3462L37.419 24.9541L12.7001 25.6568L9.375 49.156Z" fill="url(#paint15_linear_30_767)"/>
<path opacity="0.3" fill-rule="evenodd" clip-rule="evenodd" d="M18.1523 19.3009C17.9094 19.9865 18.1486 20.7068 18.6901 20.9102C19.2297 21.1134 19.864 20.7225 20.1088 20.0371C20.3518 19.3516 20.1107 18.6311 19.571 18.428C19.0314 18.2246 18.3953 18.6155 18.1523 19.3009Z" fill="white"/>
<path opacity="0.89" fill-rule="evenodd" clip-rule="evenodd" d="M18.1229 18.9756C17.8799 19.6611 18.121 20.3815 18.6606 20.5847C19.2003 20.7881 19.8364 20.3972 20.0794 19.7118C20.3223 19.0262 20.0831 18.3057 19.5416 18.1025C19.0019 17.8991 18.3676 18.29 18.1229 18.9756Z" fill="black"/>
<path fill-rule="evenodd" clip-rule="evenodd" d="M41.3042 14.4897L38.5317 11.6408C38.4241 11.5561 38.2869 11.4998 38.1793 11.4716L36.1134 54.3466L42.2277 46.3356L41.3042 14.4897Z" fill="url(#paint16_linear_30_767)"/>
<path fill-rule="evenodd" clip-rule="evenodd" d="M37.4988 11.5003L14.4565 18.8905C14.4565 18.8905 13.4792 19.1727 13.2344 19.4829C13.2065 19.5111 13.2064 19.5394 13.1805 19.5676L36.4121 12.9106C36.6031 12.8542 37.0649 12.6849 37.0111 14.0671L35.5979 54.2907L36.0876 54.3754L38.1516 11.5003C37.8809 11.4156 37.5804 11.4721 37.4988 11.5003Z" fill="url(#paint17_linear_30_767)"/>
<path fill-rule="evenodd" clip-rule="evenodd" d="M37.4988 11.5003L14.4565 18.8905C14.4565 18.8905 13.4792 19.1727 13.2344 19.4829C13.2065 19.5111 13.2064 19.5394 13.1805 19.5676L18.5604 18.0161L37.0649 12.0645C37.1465 12.0362 37.4451 11.9798 37.7437 12.0362L35.7056 54.2907L36.0876 54.3754L38.1516 11.5003C37.8809 11.4156 37.5804 11.4721 37.4988 11.5003Z" fill="url(#paint18_linear_30_767)"/>
<path opacity="0.32" fill-rule="evenodd" clip-rule="evenodd" d="M43.424 47.0409L42.2 46.3357L36.0876 54.3465L36.4121 54.2618C36.4121 54.2618 41.7939 47.0691 42.2816 46.8434C42.6358 46.7024 43.424 47.0409 43.424 47.0409Z" fill="url(#paint19_linear_30_767)"/>
<path opacity="0.57" fill-rule="evenodd" clip-rule="evenodd" d="M36.1134 54.3465L42.2277 46.3357C42.1999 46.3639 38.3425 50.736 36.1134 54.3465Z" fill="url(#paint20_linear_30_767)"/>
<path opacity="0.46" fill-rule="evenodd" clip-rule="evenodd" d="M50.6249 51.1026L42.2276 46.3636C42.1998 46.3636 43.179 46.5329 50.6249 51.1026Z" fill="url(#paint21_linear_30_767)"/>
<path opacity="0.3" fill-rule="evenodd" clip-rule="evenodd" d="M30.5758 16.4883C30.331 17.1739 30.5721 17.8944 31.1118 18.0978C31.6533 18.3012 32.2876 17.9103 32.5305 17.2249C32.7753 16.5393 32.5342 15.8188 31.9946 15.6154C31.4549 15.4122 30.8188 15.8029 30.5758 16.4883Z" fill="white"/>
<path opacity="0.89" fill-rule="evenodd" clip-rule="evenodd" d="M30.5462 16.1643C30.3032 16.8499 30.5444 17.5704 31.0841 17.7738C31.6237 17.977 32.2597 17.5863 32.5027 16.9006C32.7456 16.2152 32.5064 15.4947 31.9667 15.2914C31.4252 15.088 30.791 15.4789 30.5462 16.1643Z" fill="black"/>
<path fill-rule="evenodd" clip-rule="evenodd" d="M19.1038 20.357C19.076 20.357 19.0221 20.357 18.9943 20.357C18.5604 20.3008 18.2618 19.8776 18.3156 19.3981C18.3694 18.9467 19.9179 8.39717 26.277 5.99966C27.8793 5.40725 29.2387 5.52001 30.2716 6.3946C31.5216 7.43824 32.2003 9.52552 32.3097 12.5719C32.3913 14.7157 32.1466 16.5772 32.1466 16.662C32.0929 17.1132 31.6848 17.4518 31.249 17.3671C30.8151 17.3107 30.4886 16.8877 30.5702 16.4362C30.815 14.5182 31.0858 9.24353 29.2665 7.72023C28.6953 7.24077 27.9072 7.18429 26.8483 7.57924C21.3867 9.63828 19.9457 19.5391 19.9457 19.6236C19.8363 20.0468 19.5118 20.357 19.1038 20.357Z" fill="#595961"/>
<path opacity="0.46" fill-rule="evenodd" clip-rule="evenodd" d="M29.9453 6.45079C28.9939 5.66109 27.744 5.54833 26.2493 6.08427C23.6678 7.07144 21.4942 9.66642 19.9994 13.5872C18.8867 16.4926 18.5047 19.1158 18.5047 19.2288C18.4788 19.3698 18.5326 19.5108 18.6142 19.6237C18.6958 19.7365 18.8052 19.8212 18.9405 19.8212C18.9665 19.8212 18.9943 19.8212 19.0221 19.8212C19.2669 19.8212 19.4839 19.6237 19.5117 19.3698C19.5377 19.257 20.9787 9.18696 26.6034 7.07144C27.744 6.64826 28.6675 6.70474 29.3202 7.26891C31.2489 8.87673 30.9782 14.3206 30.7334 16.2669C30.7056 16.5491 30.8966 16.8311 31.1674 16.8593C31.44 16.8876 31.7107 16.6901 31.7386 16.4081C31.7664 16.0977 32.7178 8.76396 29.9453 6.45079Z" fill="#B2B2C2"/>
<path opacity="0.81" fill-rule="evenodd" clip-rule="evenodd" d="M18.9944 19.5109C18.9666 19.5109 18.9666 19.5109 18.9407 19.5109C18.7775 19.4827 18.668 19.3134 18.6958 19.1442C18.7237 19.0313 19.0761 16.4645 20.1906 13.5591C21.6854 9.69478 23.8051 7.12785 26.3309 6.16873C27.7719 5.6328 28.9402 5.74574 29.836 6.47915C32.4991 8.70743 31.5755 15.9286 31.5217 16.2388C31.4939 16.408 31.3586 16.5208 31.1675 16.4927C31.0062 16.4645 30.8968 16.3235 30.8968 16.126C30.8968 16.0413 31.8203 8.96137 29.4298 6.93038C28.7233 6.39444 27.7441 6.33815 26.5498 6.78938C20.8156 8.96137 19.3209 19.1442 19.3209 19.257C19.2931 19.398 19.1576 19.5109 18.9944 19.5109Z" fill="#B2B2C2"/>
<path opacity="0.42" fill-rule="evenodd" clip-rule="evenodd" d="M22.581 11.4433C22.8796 11.0203 23.1521 10.5971 23.4229 10.1459C23.3153 10.2869 22.5272 11.7537 20.897 11.528C20.8692 11.528 21.8206 11.8382 22.581 11.4433Z" fill="#595961"/>
<path opacity="0.42" fill-rule="evenodd" clip-rule="evenodd" d="M21.6576 13.2483C21.9024 12.7969 22.1471 12.3174 22.3363 11.8662C22.2547 12.0354 21.7113 13.5586 19.9996 13.5586C19.9996 13.5586 20.951 13.756 21.6576 13.2483Z" fill="#595961"/>
<path opacity="0.42" fill-rule="evenodd" clip-rule="evenodd" d="M20.9509 15.1106C21.1679 14.6309 21.3312 14.1515 21.4944 13.672C21.4128 13.8412 21.1142 15.3926 19.3209 15.59C19.3209 15.5618 20.2981 15.6748 20.9509 15.1106Z" fill="#595961"/>
<path opacity="0.62" fill-rule="evenodd" clip-rule="evenodd" d="M31.8201 9.60979C31.6847 9.10191 31.5493 8.62245 31.3582 8.11475C31.412 8.28398 31.9555 9.8918 30.8428 11.0482C30.8428 11.0482 31.6569 10.4842 31.8201 9.60979Z" fill="#595961"/>
<path opacity="0.62" fill-rule="evenodd" clip-rule="evenodd" d="M30.7614 7.07119C30.3812 6.70448 29.9991 6.36602 29.6189 6.05579C29.7562 6.19678 31.0321 7.24042 30.6798 8.82C30.6519 8.82 31.06 7.88912 30.7614 7.07119Z" fill="#595961"/>
<path opacity="0.62" fill-rule="evenodd" clip-rule="evenodd" d="M32.0927 12.2051C32.0649 11.6974 31.9834 11.1615 31.9018 10.6536C31.9018 10.851 32.1744 12.5153 30.8688 13.418C30.8688 13.418 31.7663 13.023 32.0927 12.2051Z" fill="#595961"/>
<path opacity="0.62" fill-rule="evenodd" clip-rule="evenodd" d="M32.2282 14.8568C32.256 14.3491 32.256 13.8131 32.2282 13.3054C32.2282 13.5029 32.256 15.1672 30.8688 15.9286C30.8688 15.9006 31.8202 15.6184 32.2282 14.8568Z" fill="#595961"/>
<path opacity="0.42" fill-rule="evenodd" clip-rule="evenodd" d="M20.3257 17.1694C20.4889 16.6617 20.5984 16.154 20.706 15.6743C20.6522 15.8436 20.4074 17.4514 18.7495 17.8463C18.7773 17.8463 19.7546 17.8181 20.3257 17.1694Z" fill="#595961"/>
<path opacity="0.42" fill-rule="evenodd" clip-rule="evenodd" d="M23.6141 9.89149C23.9942 9.55303 24.3484 9.18632 24.6748 8.79138C24.5375 8.90414 23.4508 10.0607 21.9301 9.63755C21.9561 9.63755 22.7981 10.1454 23.6141 9.89149Z" fill="#595961"/>
<path opacity="0.42" fill-rule="evenodd" clip-rule="evenodd" d="M24.836 8.59462C25.2718 8.31263 25.6798 8.03045 26.0859 7.72021C25.9246 7.80492 24.6746 8.73562 23.2336 8.05868C23.2336 8.05868 23.994 8.70738 24.836 8.59462Z" fill="#595961"/>
<path opacity="0.62" fill-rule="evenodd" clip-rule="evenodd" d="M26.494 7.66387C26.9836 7.52268 27.4454 7.35345 27.9072 7.18422C27.744 7.24069 26.2771 7.74839 25.0809 6.67651C25.0809 6.67651 25.652 7.52268 26.494 7.66387Z" fill="#595961"/>
<path opacity="0.62" fill-rule="evenodd" clip-rule="evenodd" d="M27.8793 7.15618C28.2614 7.21265 28.6416 7.24089 29.0218 7.26913C28.8864 7.24089 27.7179 7.15618 27.2005 6.02783C27.2283 6.02783 27.3638 6.78947 27.8793 7.15618Z" fill="#595961"/>
<path opacity="0.62" fill-rule="evenodd" clip-rule="evenodd" d="M29.3481 7.77634C29.5929 8.08657 29.8359 8.39681 30.0807 8.67899C29.9991 8.56604 29.2387 7.63535 29.6188 6.47876C29.6467 6.47876 29.2387 7.12764 29.3481 7.77634Z" fill="#595961"/>
<path fill-rule="evenodd" clip-rule="evenodd" d="M31.2229 16.0975C31.2488 15.7873 32.1743 8.65085 29.5928 6.47886C29.1032 6.05587 28.5061 5.8584 27.8533 5.8584C27.3637 5.8584 26.8203 5.97116 26.2491 6.19686C23.7493 7.12774 21.6573 9.63821 20.1904 13.4743C19.0758 16.3515 18.7234 18.9184 18.6956 19.0312C18.6956 19.1157 18.7495 19.2004 18.8311 19.2004H18.8588C18.9404 19.2004 18.9942 19.1439 18.9942 19.0594C19.022 18.9464 20.4889 8.65085 26.3306 6.45063C27.5806 5.97116 28.6414 6.05587 29.4017 6.70457C31.8738 8.76361 30.9503 15.9565 30.9244 16.0412C30.9244 16.1258 30.9782 16.2105 31.0598 16.2105C31.0598 16.2105 31.0597 16.2105 31.0857 16.2105C31.1673 16.2387 31.2229 16.1822 31.2229 16.0975Z" fill="url(#paint22_linear_30_767)"/>
<path fill-rule="evenodd" clip-rule="evenodd" d="M32.3097 12.5717C32.2003 9.52527 31.5216 7.46605 30.2716 6.39417C29.5929 5.83018 28.777 5.57623 27.8534 5.63271C28.56 5.68899 29.2109 5.94294 29.7561 6.39417C31.0061 7.43799 31.6848 9.52527 31.7923 12.5717C31.8739 14.7154 31.631 16.577 31.631 16.6617C31.5754 17.0002 31.3584 17.2541 31.0858 17.3386C31.1414 17.3669 31.1673 17.3669 31.223 17.3669C31.6569 17.4234 32.065 17.1129 32.1188 16.6617C32.1466 16.577 32.3913 14.7437 32.3097 12.5717Z" fill="url(#paint23_linear_30_767)"/>
<path fill-rule="evenodd" clip-rule="evenodd" d="M26.305 7.57906C20.8434 9.63811 19.4025 19.5389 19.4025 19.6517C19.3487 19.9902 19.1298 20.2441 18.859 20.3286C18.9128 20.3569 18.9406 20.3569 18.9944 20.3569C19.0222 20.3569 19.0761 20.3569 19.1039 20.3569C19.5119 20.3569 19.8364 20.0466 19.892 19.6517C19.918 19.5389 21.3311 9.66635 26.7927 7.60712C27.1747 7.46612 27.4993 7.38159 27.7998 7.35336C27.3918 7.29689 26.8743 7.38159 26.305 7.57906Z" fill="url(#paint24_linear_30_767)"/>
<defs>
<linearGradient id="paint0_linear_30_767" x1="25.5204" y1="7.38887" x2="24.6682" y2="18.9917" gradientUnits="userSpaceOnUse">
<stop stop-color="white" stop-opacity="0.65"/>
<stop offset="1" stop-color="white" stop-opacity="0.01"/>
</linearGradient>
<linearGradient id="paint1_linear_30_767" x1="31.748" y1="14.0303" x2="37.748" y2="19.2856" gradientUnits="userSpaceOnUse">
<stop stop-opacity="0.01"/>
<stop offset="1" stop-opacity="0.4"/>
</linearGradient>
<linearGradient id="paint2_linear_30_767" x1="29.3425" y1="20.1096" x2="35.6933" y2="14.1942" gradientUnits="userSpaceOnUse">
<stop stop-opacity="0.01"/>
<stop offset="1" stop-opacity="0.4"/>
</linearGradient>
<linearGradient id="paint3_linear_30_767" x1="21.2588" y1="2.84695" x2="-3.4084" y2="31.269" gradientUnits="userSpaceOnUse">
<stop stop-color="#B8D26E"/>
<stop offset="1" stop-color="#7FB525"/>
</linearGradient>
<linearGradient id="paint4_linear_30_767" x1="55.0017" y1="9.96266" x2="41.4638" y2="10.2141" gradientUnits="userSpaceOnUse">
<stop stop-color="#B4E034"/>
<stop offset="1" stop-color="#60A927"/>
</linearGradient>
<linearGradient id="paint5_linear_30_767" x1="14.7344" y1="28.9144" x2="3.6352" y2="55.9432" gradientUnits="userSpaceOnUse">
<stop stop-color="white"/>
<stop offset="1" stop-color="#CECEEB"/>
</linearGradient>
<linearGradient id="paint6_linear_30_767" x1="30.6481" y1="95.4783" x2="48.227" y2="95.4427" gradientUnits="userSpaceOnUse">
<stop stop-color="#1D1D1B" stop-opacity="0.5"/>
<stop offset="0.038033" stop-color="#1D1D1B" stop-opacity="0.4837"/>
<stop offset="0.4243" stop-color="#1D1D1B" stop-opacity="0.3185"/>
<stop offset="1" stop-color="#1D1D1B" stop-opacity="0.01"/>
</linearGradient>
<linearGradient id="paint7_linear_30_767" x1="32.6899" y1="10.8762" x2="29.7736" y2="12.4457" gradientUnits="userSpaceOnUse">
<stop stop-opacity="0.01"/>
<stop offset="1" stop-opacity="0.4"/>
</linearGradient>
<linearGradient id="paint8_linear_30_767" x1="20.4632" y1="15.5313" x2="18.4132" y2="17.2932" gradientUnits="userSpaceOnUse">
<stop stop-opacity="0.01"/>
<stop offset="1" stop-opacity="0.4"/>
</linearGradient>
<linearGradient id="paint9_linear_30_767" x1="40.4604" y1="51.1236" x2="40.6679" y2="53.8596" gradientUnits="userSpaceOnUse">
<stop stop-opacity="0.01"/>
<stop offset="1" stop-opacity="0.4"/>
</linearGradient>
<linearGradient id="paint10_linear_30_767" x1="35.6145" y1="47.1183" x2="36.0957" y2="54.2316" gradientUnits="userSpaceOnUse">
<stop stop-color="white" stop-opacity="0.5"/>
<stop offset="0.0896271" stop-color="white" stop-opacity="0.4552"/>
<stop offset="1" stop-color="white" stop-opacity="0.01"/>
</linearGradient>
<linearGradient id="paint11_linear_30_767" x1="34.6891" y1="48.2247" x2="35.545" y2="55.8232" gradientUnits="userSpaceOnUse">
<stop stop-opacity="0.01"/>
<stop offset="1" stop-opacity="0.4"/>
</linearGradient>
<linearGradient id="paint12_linear_30_767" x1="31.3306" y1="4.50732" x2="9.37825" y2="17.2037" gradientUnits="userSpaceOnUse">
<stop stop-color="white" stop-opacity="0.5"/>
<stop offset="1" stop-color="white" stop-opacity="0.01"/>
</linearGradient>
<linearGradient id="paint13_linear_30_767" x1="35.5662" y1="70.8627" x2="54.9422" y2="70.9019" gradientUnits="userSpaceOnUse">
<stop stop-color="#1D1D1B" stop-opacity="0.5"/>
<stop offset="0.0896271" stop-color="#1D1D1B" stop-opacity="0.4552"/>
<stop offset="1" stop-color="#1D1D1B" stop-opacity="0.01"/>
</linearGradient>
<linearGradient id="paint14_linear_30_767" x1="49.4419" y1="13.4495" x2="46.6895" y2="14.1239" gradientUnits="userSpaceOnUse">
<stop stop-color="white" stop-opacity="0.4"/>
<stop offset="1" stop-color="white" stop-opacity="0.01"/>
</linearGradient>
<linearGradient id="paint15_linear_30_767" x1="24.7471" y1="54.6601" x2="26.1784" y2="47.7599" gradientUnits="userSpaceOnUse">
<stop stop-color="#1D1D1B" stop-opacity="0.5"/>
<stop offset="0.0896271" stop-color="#1D1D1B" stop-opacity="0.4552"/>
<stop offset="1" stop-color="#1D1D1B" stop-opacity="0.01"/>
</linearGradient>
<linearGradient id="paint16_linear_30_767" x1="33.0219" y1="94.5998" x2="50.6639" y2="94.6151" gradientUnits="userSpaceOnUse">
<stop stop-color="#1D1D1B" stop-opacity="0.5"/>
<stop offset="1" stop-color="#1D1D1B" stop-opacity="0.01"/>
</linearGradient>
<linearGradient id="paint17_linear_30_767" x1="16.9007" y1="9.01458" x2="8.34433" y2="41.8878" gradientUnits="userSpaceOnUse">
<stop stop-color="white" stop-opacity="0.5"/>
<stop offset="1" stop-color="white" stop-opacity="0.01"/>
</linearGradient>
<linearGradient id="paint18_linear_30_767" x1="16.9007" y1="9.01458" x2="8.34433" y2="41.8878" gradientUnits="userSpaceOnUse">
<stop stop-color="white" stop-opacity="0.5"/>
<stop offset="1" stop-color="white" stop-opacity="0.01"/>
</linearGradient>
<linearGradient id="paint19_linear_30_767" x1="37.6658" y1="43.474" x2="30.9028" y2="52.7824" gradientUnits="userSpaceOnUse">
<stop stop-color="white" stop-opacity="0.5"/>
<stop offset="0.0896271" stop-color="white" stop-opacity="0.4552"/>
<stop offset="1" stop-color="white" stop-opacity="0.01"/>
</linearGradient>
<linearGradient id="paint20_linear_30_767" x1="39.7056" y1="45.6141" x2="39.036" y2="47.1151" gradientUnits="userSpaceOnUse">
<stop stop-opacity="0.01"/>
<stop offset="1" stop-opacity="0.4"/>
</linearGradient>
<linearGradient id="paint21_linear_30_767" x1="46.3465" y1="47.5987" x2="46.3134" y2="48.0021" gradientUnits="userSpaceOnUse">
<stop stop-opacity="0.01"/>
<stop offset="1" stop-opacity="0.4"/>
</linearGradient>
<linearGradient id="paint22_linear_30_767" x1="21.9929" y1="4.90888" x2="19.0692" y2="16.4588" gradientUnits="userSpaceOnUse">
<stop stop-color="white" stop-opacity="0.65"/>
<stop offset="1" stop-color="white" stop-opacity="0.01"/>
</linearGradient>
<linearGradient id="paint23_linear_30_767" x1="28.5359" y1="11.5716" x2="33.6218" y2="16.7423" gradientUnits="userSpaceOnUse">
<stop stop-opacity="0.01"/>
<stop offset="1" stop-opacity="0.4"/>
</linearGradient>
<linearGradient id="paint24_linear_30_767" x1="25.285" y1="19.1861" x2="32.3119" y2="11.9694" gradientUnits="userSpaceOnUse">
<stop stop-opacity="0.01"/>
<stop offset="1" stop-opacity="0.4"/>
</linearGradient>
</defs>
</svg>
