<svg width="60" height="60" viewBox="0 0 60 60" fill="none" xmlns="http://www.w3.org/2000/svg">
<path fill-rule="evenodd" clip-rule="evenodd" d="M30.0114 56.2497C44.5063 56.2497 56.25 44.506 56.25 30.0114C56.25 15.4937 44.5063 3.75 30.0114 3.75C15.5168 3.75 3.75 15.4937 3.75 30.0114C3.75 44.506 15.5168 56.2497 30.0114 56.2497Z" fill="url(#paint0_linear_1_13570)"/>
<path fill-rule="evenodd" clip-rule="evenodd" d="M15.9792 43.8587C17.6331 45.5121 19.5561 46.8722 21.666 47.8808L15.9792 34.8429L11.2401 23.9777C10.6159 25.8734 10.2923 27.9077 10.2923 30.0114C10.2923 35.3977 12.4653 40.2986 15.9792 43.8587V43.8587ZM44.0434 48.8983C49.7996 44.6216 53.5446 37.7554 53.5446 30.0114C53.5446 22.267 49.7996 15.4012 44.0434 11.1013C40.1134 8.18852 35.2591 6.45471 30.0114 6.45471C24.7638 6.45471 19.9091 8.18852 15.9792 11.1013C10.2229 15.4012 6.47789 22.267 6.47789 30.0114C6.47789 37.7554 10.2229 44.6216 15.9792 48.8983C19.9091 51.8108 24.7638 53.5449 30.0114 53.5449C35.2591 53.5449 40.1134 51.8111 44.0434 48.8983ZM44.0434 16.164C44.7441 16.8654 45.3859 17.6231 45.9625 18.4295L44.0434 22.8681L36.808 39.4895L33.0629 30.9592H26.9599L23.2149 39.4895L15.9792 22.8681L14.0604 18.4295C14.6367 17.623 15.2785 16.8653 15.9792 16.164C17.1797 14.9383 18.5405 13.8807 20.0247 13.0201L26.8675 28.948H33.1551L39.9978 13.0201C41.482 13.8807 42.8429 14.9383 44.0434 16.164V16.164ZM44.0434 34.8429L48.7825 23.9777C49.4069 25.8734 49.7306 27.9077 49.7306 30.0114C49.7306 35.3974 47.5576 40.2986 44.0434 43.8587C42.3896 45.5121 40.4666 46.8722 38.3568 47.8808L44.0434 34.8429V34.8429ZM30.0114 36.3687L35.5137 48.9214C33.7264 49.4443 31.8736 49.709 30.0114 49.7074C28.1494 49.709 26.2966 49.4443 24.5095 48.9214L30.0114 36.3687ZM30.0114 24.024L35.6755 11.1244C33.8952 10.5696 31.9764 10.2922 30.0114 10.2922C28.0464 10.2922 26.1508 10.5696 24.3477 11.1244L30.0114 24.024Z" fill="white"/>
<defs>
<linearGradient id="paint0_linear_1_13570" x1="3.75808" y1="3.75807" x2="56.2416" y2="56.2416" gradientUnits="userSpaceOnUse">
<stop stop-color="#2088FA"/>
<stop offset="1" stop-color="#032B5C"/>
</linearGradient>
</defs>
</svg>
