<?xml version="1.0" encoding="utf-8"?>
<!-- Generator: Adobe Illustrator 26.2.1, SVG Export Plug-In . SVG Version: 6.00 Build 0)  -->
<svg version="1.1" id="coklu_izle" xmlns="http://www.w3.org/2000/svg" xmlns:xlink="http://www.w3.org/1999/xlink" x="0px" y="0px"
	 viewBox="0 0 1400 1400" style="enable-background:new 0 0 1400 1400;" xml:space="preserve">
<style type="text/css">
	.st0{fill:#FFFFFF;}
</style>
<g>
	<path class="st0" d="M1113.37,344.67H296.95c-44.05,0-79.75,35.71-79.75,79.75v588.37c0,44.05,35.71,79.75,79.75,79.75h816.42
		c44.05,0,79.75-35.71,79.75-79.75V424.42C1193.12,380.38,1157.42,344.67,1113.37,344.67z M296.95,373.89h816.42
		c27.87,0,50.54,22.67,50.54,50.54v34.95h-917.5v-34.95C246.41,396.56,269.08,373.89,296.95,373.89z M246.41,488.59h444.14v258.54
		H246.41V488.59z M719.77,488.59h444.14v258.54H719.77V488.59z M246.41,1012.79V776.35h444.14v286.98h-393.6
		C269.08,1063.33,246.41,1040.66,246.41,1012.79z M1113.37,1063.33h-393.6V776.35h444.14v236.45
		C1163.91,1040.66,1141.24,1063.33,1113.37,1063.33z"/>
	<path class="st0" d="M529.25,605.79l-105.45-69.6c-4.49-2.96-10.24-3.22-14.97-0.67c-4.73,2.55-7.68,7.49-7.68,12.86v139.19
		c0,5.37,2.95,10.32,7.68,12.86c2.17,1.17,4.55,1.74,6.92,1.74c2.81,0,5.62-0.81,8.05-2.42l105.45-69.6
		c4.1-2.7,6.56-7.28,6.56-12.19C535.81,613.07,533.35,608.49,529.25,605.79z M430.36,660.43v-84.91l64.33,42.45L430.36,660.43z"/>
	<path class="st0" d="M1008.64,605.79l-105.45-69.6c-4.49-2.96-10.24-3.22-14.97-0.67c-4.73,2.55-7.68,7.49-7.68,12.86v139.19
		c0,5.37,2.95,10.32,7.68,12.86c2.17,1.17,4.55,1.74,6.92,1.74c2.81,0,5.62-0.81,8.05-2.42l105.45-69.6
		c4.1-2.7,6.56-7.28,6.56-12.19C1015.2,613.07,1012.73,608.49,1008.64,605.79z M909.75,660.43v-84.91l64.33,42.45L909.75,660.43z"/>
	<path class="st0" d="M529.25,900.85l-105.45-69.6c-4.49-2.96-10.24-3.22-14.97-0.67c-4.73,2.55-7.68,7.49-7.68,12.86v139.19
		c0,5.37,2.95,10.32,7.68,12.86c2.17,1.17,4.55,1.74,6.92,1.74c2.81,0,5.62-0.81,8.05-2.42l105.45-69.6
		c4.1-2.7,6.56-7.28,6.56-12.19C535.81,908.13,533.35,903.55,529.25,900.85z M430.36,955.49v-84.91l64.33,42.45L430.36,955.49z"/>
	<path class="st0" d="M1008.64,900.85l-105.45-69.6c-4.49-2.96-10.24-3.22-14.97-0.67c-4.73,2.55-7.68,7.49-7.68,12.86v139.19
		c0,5.37,2.95,10.32,7.68,12.86c2.17,1.17,4.55,1.74,6.92,1.74c2.81,0,5.62-0.81,8.05-2.42l105.45-69.6
		c4.1-2.7,6.56-7.28,6.56-12.19C1015.2,908.13,1012.73,903.55,1008.64,900.85z M909.75,955.49v-84.91l64.33,42.45L909.75,955.49z"/>
	
		<ellipse transform="matrix(0.9871 -0.1602 0.1602 0.9871 -62.305 54.6507)" class="st0" cx="307.82" cy="413.78" rx="23.25" ry="23.25"/>
	<circle class="st0" cx="377.58" cy="413.78" r="23.25"/>
	
		<ellipse transform="matrix(0.3827 -0.9239 0.9239 0.3827 -103.7416 672.295)" class="st0" cx="451.21" cy="413.78" rx="23.25" ry="23.25"/>
</g>
</svg>
