<?xml version="1.0" encoding="utf-8"?>
<!-- Generator: Adobe Illustrator 26.2.1, SVG Export Plug-In . SVG Version: 6.00 Build 0)  -->
<svg version="1.1" id="her_yerde_izle" xmlns="http://www.w3.org/2000/svg" xmlns:xlink="http://www.w3.org/1999/xlink" x="0px"
	 y="0px" viewBox="0 0 1400 1400" style="enable-background:new 0 0 1400 1400;display:none;" xml:space="preserve">
<style type="text/css">
	.st0{fill:#FFFFFF;}
</style>
<g style="display:inline;">
	<g>
		<path class="st0" d="M1267.29,807.13h-99.44c-18.62,0-33.71,15.09-33.71,33.71v44.22h-731.5v29.21h731.5v59.77h-731.5v29.21
			h242.32v50.47c0,5.03-2.12,9.9-5.8,13.34l-12.4,11.57h-69.9c-8.07,0-14.61,6.54-14.61,14.61s6.54,14.61,14.61,14.61h371.07
			c8.07,0,14.61-6.54,14.61-14.61s-6.54-14.61-14.61-14.61h-69.88l-12.41-11.56c-3.68-3.44-5.79-8.3-5.79-13.35v-50.47h294.29v56.04
			c0,18.62,15.09,33.71,33.71,33.71h99.45c18.62,0,33.71-15.09,33.71-33.71V840.84C1301,822.22,1285.91,807.13,1267.29,807.13z
			 M817.77,1078.64H667.01c4.59-7.44,7.15-16.06,7.15-24.91v-50.47h136.47v50.47C810.63,1062.59,813.19,1071.2,817.77,1078.64z
			 M1271.79,1059.3c0,2.48-2.02,4.5-4.5,4.5h-99.45c-2.48,0-4.5-2.02-4.5-4.5V840.84c0-2.48,2.02-4.5,4.5-4.5h99.44
			c2.48,0,4.5,2.02,4.5,4.5V1059.3z"/>
	</g>
	<g>
		<path class="st0" d="M1217.19,1017.72c-9.32,0-16.88,7.56-16.88,16.88c0,9.32,7.56,16.88,16.88,16.88
			c9.32,0,16.88-7.56,16.88-16.88C1234.07,1025.27,1226.51,1017.72,1217.19,1017.72z"/>
	</g>
	<g>
		<path class="st0" d="M351.96,677.25h-70.15v-293.5c0-11.06,6.91-20.72,17.45-24.12l0.72-0.21c0.31-0.08,0.62-0.17,1.01-0.25
			c0.74-0.16,1.48-0.3,2.29-0.4c0.99-0.13,2.03-0.2,3.1-0.2h872.02c1.06,0,2.11,0.07,3.15,0.2c0.76,0.1,1.5,0.23,2.31,0.41
			c0.32,0.07,0.64,0.16,0.87,0.22l1.02,0.3c10.29,3.31,17.21,12.97,17.21,24.05v423.37h29.21V383.76v-0.65
			c0-21.85-12.99-41.11-32.78-49.46c-0.16-0.07-0.32-0.15-0.48-0.22c-0.87-0.36-1.78-0.67-2.68-0.98c-0.46-0.16-0.9-0.35-1.36-0.5
			l-0.23-0.07c-0.02-0.01-0.04-0.01-0.06-0.02l0,0l-0.35-0.11c-0.68-0.21-1.38-0.42-1.87-0.54c-0.76-0.2-1.53-0.4-2.22-0.55
			c-1.64-0.37-3.29-0.65-4.84-0.85c-2.25-0.29-4.56-0.44-6.9-0.44H306.38c-2.33,0-4.65,0.15-6.84,0.44
			c-1.62,0.21-3.22,0.49-4.82,0.84c-0.77,0.17-1.55,0.37-2.07,0.51c-0.08,0.02-0.15,0.04-0.23,0.06c-0.04,0.01-0.08,0.02-0.12,0.03
			c-0.08,0.02-0.15,0.04-0.22,0.06c-0.5,0.14-0.98,0.27-1.35,0.39l-0.52,0.16c0,0-0.01,0-0.01,0.01l-0.06,0.02
			c-0.15,0.05-0.29,0.11-0.44,0.16c-22.2,7.24-37.08,27.68-37.08,51.06v0.65v293.5h-92.61c-27.98,0-50.67,22.68-50.67,50.67v315.92
			c0,27.98,22.68,50.67,50.67,50.67h191.97c27.98,0,50.67-22.68,50.67-50.67V727.92C402.62,699.94,379.94,677.25,351.96,677.25z
			 M373.41,1043.84c0,11.83-9.62,21.45-21.45,21.45H159.98c-11.83,0-21.45-9.62-21.45-21.45V727.92c0-11.83,9.62-21.45,21.45-21.45
			h191.97c11.83,0,21.45,9.62,21.45,21.45V1043.84z"/>
	</g>
	<g>
		<circle class="st0" cx="257.72" cy="1031.2" r="20.05"/>
	</g>
</g>
</svg>
