<?xml version="1.0" encoding="utf-8"?>
<!-- Generator: Adobe Illustrator 26.2.1, SVG Export Plug-In . SVG Version: 6.00 Build 0)  -->
<svg version="1.1" id="diledigin_zaman_izle" xmlns="http://www.w3.org/2000/svg" xmlns:xlink="http://www.w3.org/1999/xlink"
	 x="0px" y="0px" viewBox="0 0 1400 1400" style="enable-background:new 0 0 1400 1400;" xml:space="preserve">
<style type="text/css">
	.st0{fill:#FFFFFF;}
</style>
<g>
	<path class="st0" d="M822.32,594.53L647.56,479.19c-4.48-2.96-10.24-3.22-14.97-0.67c-4.73,2.55-7.69,7.49-7.69,12.86v230.69
		c0,5.37,2.95,10.31,7.69,12.86c2.17,1.17,4.54,1.74,6.92,1.74c2.81,0,5.61-0.81,8.05-2.42l174.77-115.34
		c4.1-2.7,6.56-7.28,6.56-12.19S826.42,597.24,822.32,594.53z M654.12,694.93v-176.4l133.64,88.2L654.12,694.93z"/>
	<path class="st0" d="M1139.07,1039.84H621.18c-8.07,0-14.61,6.54-14.61,14.61s6.54,14.61,14.61,14.61h517.89
		c8.07,0,14.61-6.54,14.61-14.61S1147.14,1039.84,1139.07,1039.84z"/>
	<path class="st0" d="M369.23,1039.84h-97.98c-8.07,0-14.61,6.54-14.61,14.61s6.54,14.61,14.61,14.61h97.98
		c8.07,0,14.61-6.54,14.61-14.61S377.3,1039.84,369.23,1039.84z"/>
	<path class="st0" d="M495.2,969.85c-46.65,0-84.59,37.95-84.59,84.59c0,46.64,37.95,84.59,84.59,84.59s84.59-37.95,84.59-84.59
		C579.8,1007.8,541.85,969.85,495.2,969.85z M495.2,1109.83c-30.54,0-55.38-24.84-55.38-55.38s24.84-55.38,55.38-55.38
		c30.53,0,55.38,24.84,55.38,55.38S525.74,1109.83,495.2,1109.83z"/>
	<path class="st0" d="M1081.74,298.18H328.58c-39.67,0-71.94,32.27-71.94,71.94v473.22c0,39.67,32.27,71.94,71.94,71.94h753.16
		c39.67,0,71.94-32.27,71.94-71.94V370.12C1153.68,330.45,1121.41,298.18,1081.74,298.18z M1124.46,843.33
		c0,23.56-19.17,42.72-42.72,42.72H328.58c-23.56,0-42.72-19.17-42.72-42.72V370.12c0-23.56,19.17-42.72,42.72-42.72h753.16
		c23.56,0,42.72,19.16,42.72,42.72V843.33z"/>
</g>
</svg>
