<?xml version="1.0" encoding="utf-8"?>
<!-- Generator: Adobe Illustrator 26.2.1, SVG Export Plug-In . SVG Version: 6.00 Build 0)  -->
<svg version="1.1" id="kolay_uyelik_kolay_iptal" xmlns="http://www.w3.org/2000/svg" xmlns:xlink="http://www.w3.org/1999/xlink"
	 x="0px" y="0px" viewBox="0 0 1400 1400" style="enable-background:new 0 0 1400 1400;" xml:space="preserve">
<style type="text/css">
	.st0{fill:#FFFFFF;}
</style>
<g>
	<path class="st0" d="M759.64,729.81c-11.92,0-22.75,5.04-30.8,13.18c-7.77-14.37-22.26-24.09-38.86-24.09
		c-12.38,0-23.67,5.38-31.84,14.16c-7.99-13.36-21.94-22.26-37.82-22.26c-9.14,0-17.64,2.94-24.74,7.97l-0.06-115.47
		c-0.01-4.55-0.65-8.95-1.78-13.14c2.38-2.19,4.08-5.14,4.58-8.59c0.64-4.39,1.15-8.89,1.51-13.3c0.56-6.37,0.85-12.92,0.85-19.45
		c0-125.03-101.72-226.76-226.76-226.76S147.18,423.78,147.18,548.81S248.9,775.57,373.93,775.57c47.54,0,92.57-14.38,130.95-41.64
		l0.26,119.54l-27.83-35.09c-17.44-21.98-45.76-29.14-70.47-17.8c-8.46,3.88-14.98,11.03-18.35,20.15
		c-3.54,9.56-3.14,20.33,1.1,29.55c0.1,0.22,0.21,0.43,0.32,0.64l125.91,229.13c11.9,21.65,33.81,35.11,57.18,35.11h149.51
		c27.95,0,52.5-21.33,58.39-50.72c15.69-78.36,23.65-158.75,23.65-238.94v-47.6C804.55,751.38,784.41,729.81,759.64,729.81z
		 M495.82,704.28c-35.05,27.53-77.2,42.08-121.88,42.08c-108.93,0-197.54-88.62-197.54-197.54s88.62-197.54,197.54-197.54
		s197.54,88.62,197.54,197.54c0,3.86-0.16,7.71-0.38,11.55c-6.08-3.44-12.93-5.49-20.2-5.63c-11.46-0.25-22.64,4.31-31.24,12.77
		c-9.6,9.43-15.08,22.82-15.05,36.74l0.21,96.99C501.66,701.23,498.49,702.19,495.82,704.28z M784.39,825.5
		c0,78.86-7.82,157.92-23.25,234.98c-4.01,19.99-20.25,34.51-38.61,34.51H573c-16.01,0-31.15-9.45-39.5-24.65L407.78,841.56
		c-1.9-4.33-2.04-9.35-0.38-13.82c1.5-4.06,4.29-7.19,7.85-8.82c16.12-7.39,34.71-2.56,46.27,12l45.87,57.84
		c2.67,3.36,7.17,4.67,11.23,3.25c4.05-1.42,6.77-5.25,6.76-9.54l-0.6-278.28c-0.02-8.52,3.27-16.66,9.02-22.31
		c4.71-4.62,10.73-7.14,16.71-6.99c13.67,0.26,24.82,13.03,24.85,28.44l0.06,84.3v127.54c0,5.57,4.52,10.08,10.08,10.08
		c5.57,0,10.08-4.52,10.08-10.08V758.9c0-15.4,11.1-27.93,24.74-27.93c13.64,0,24.74,12.53,24.74,27.93v64.76
		c0,5.57,4.52,10.08,10.08,10.08c5.57,0,10.08-4.52,10.08-10.08c0-4.56,0.08-55.47,0.2-60.26c1.58-13.89,12.09-24.32,24.54-24.32
		c13.64,0,24.74,12.53,24.74,27.93v10.9v14.61v42.43c0,5.57,4.52,10.08,10.08,10.08c5.57,0,10.08-4.52,10.08-10.08v-42.43V777.9
		c0-15.4,11.1-27.93,24.75-27.93s24.74,12.53,24.74,27.93V825.5z"/>
	<path class="st0" d="M1151.48,441.77c-5.7-5.7-14.95-5.7-20.66,0l-90.87,90.87l-90.87-90.87c-5.7-5.7-14.96-5.7-20.66,0
		c-5.71,5.7-5.71,14.95,0,20.66l90.87,90.87l-90.87,90.87c-5.71,5.7-5.71,14.95,0,20.66c2.85,2.85,6.59,4.28,10.33,4.28
		s7.48-1.43,10.33-4.28l90.87-90.87l90.87,90.87c2.85,2.85,6.59,4.28,10.33,4.28c3.74,0,7.48-1.43,10.33-4.28
		c5.71-5.7,5.71-14.95,0-20.66l-90.87-90.87l90.87-90.87C1157.18,456.72,1157.18,447.47,1151.48,441.77z"/>
	<path class="st0" d="M1036.38,322.06c-125.03,0-226.76,101.72-226.76,226.76s101.72,226.76,226.76,226.76
		c125.04,0,226.76-101.72,226.76-226.76S1161.42,322.06,1036.38,322.06z M1036.38,746.36c-108.93,0-197.54-88.62-197.54-197.55
		s88.62-197.55,197.54-197.55c108.93,0,197.55,88.62,197.55,197.55S1145.31,746.36,1036.38,746.36z"/>
	<path class="st0" d="M513.54,459.91c-5.7-5.7-14.95-5.7-20.66,0L326.64,626.16l-63.28-63.28c-5.7-5.7-14.95-5.7-20.66,0
		c-5.71,5.7-5.71,14.95,0,20.66l71.11,71.11c0.6,1,1.29,1.97,2.16,2.83c2.85,2.85,6.59,4.28,10.33,4.28c0.11,0,0.22-0.03,0.34-0.03
		c0.11,0,0.22,0.03,0.34,0.03c3.74,0,7.48-1.43,10.33-4.28c0.87-0.87,1.55-1.83,2.16-2.83l174.08-174.08
		C519.25,474.87,519.25,465.62,513.54,459.91z"/>
</g>
</svg>
