<svg width="60" height="60" viewBox="0 0 60 60" fill="none" xmlns="http://www.w3.org/2000/svg">
<path fill-rule="evenodd" clip-rule="evenodd" d="M56.25 30C56.25 44.4975 44.4975 56.25 30 56.25C15.5025 56.25 3.75 44.4975 3.75 30C3.75 15.5025 15.5025 3.75 30 3.75C44.4975 3.75 56.25 15.5025 56.25 30ZM39.2325 50.5247C36.4155 51.7938 33.2902 52.5 30 52.5C24.5683 52.5 19.5861 50.5753 15.6983 47.3706C19.7427 40.5838 26.2479 35.438 33.9807 33.1614C36.2017 38.734 37.9676 44.537 39.2325 50.5247ZM42.6538 48.6072C41.4077 43.0034 39.7369 37.5596 37.6771 32.3114C39.3918 32.0244 41.1531 31.875 42.9492 31.875C46.1936 31.875 49.3213 32.3618 52.2648 33.2654C51.3389 39.6342 47.7451 45.1382 42.6538 48.6072ZM52.4928 29.425C49.4547 28.5776 46.2535 28.125 42.9492 28.125C40.6458 28.125 38.3938 28.3447 36.213 28.7643C35.6442 27.4515 35.0507 26.152 34.4331 24.8662C39.342 22.6873 43.8787 19.8222 47.9207 16.3929C50.6862 20.0295 52.3701 24.5334 52.4928 29.425ZM45.4099 13.6052C41.6152 16.8109 37.357 19.4841 32.7501 21.5101C30.3182 16.8597 27.5657 12.4037 24.522 8.17155C26.2755 7.7329 28.1105 7.5 30 7.5C35.9627 7.5 41.3837 9.81942 45.4099 13.6052ZM20.8173 9.45302C14.212 12.4095 9.29263 18.4575 7.89956 25.7566C9.17959 25.8506 10.4727 25.8985 11.7774 25.8985C17.9047 25.8985 23.7845 24.8422 29.2451 22.9015C26.765 18.2009 23.9448 13.7071 20.8173 9.45302ZM7.50572 29.4876C7.50191 29.6579 7.5 29.8287 7.5 30C7.5 35.6101 9.55319 40.7406 12.9491 44.6811C17.4226 37.5925 24.3413 32.1976 32.5224 29.6834C32.0173 28.5362 31.4926 27.3995 30.9487 26.2738C24.9689 28.457 18.5118 29.6485 11.7774 29.6485C10.3405 29.6485 8.91595 29.5942 7.50572 29.4876Z" fill="#E84C88"/>
</svg>
