<svg width="60" height="60" viewBox="0 0 60 60" fill="none" xmlns="http://www.w3.org/2000/svg">
<path d="M34.8158 34.4724C34.8158 34.5853 34.846 34.6455 34.9139 34.6455C34.9667 34.6455 35.0119 34.6229 35.0647 34.5928L53.7549 22.9666C54.0867 22.7559 54.3809 22.643 54.8334 22.643H58.9441C59.5776 22.643 60 23.0493 60 23.6589V31.1614C60 32.0644 59.7964 32.5911 58.9441 33.0803L53.9585 35.9398C53.8982 35.9849 53.8378 36 53.7926 36C53.7322 36 53.6794 35.9624 53.6794 35.7968V27.0301C53.6794 26.9323 53.6493 26.857 53.5739 26.857C53.5211 26.857 53.4833 26.8796 53.4305 26.9097L39.7637 35.4055C39.379 35.6463 39.0698 35.714 38.7153 35.714H29.6493C29.0233 35.714 28.5933 35.3077 28.5933 34.7057V23.8921C28.5933 23.8169 28.5556 23.7492 28.4953 23.7492C28.4425 23.7492 28.3972 23.7642 28.3444 23.7943L19.3312 28.9791C19.2407 29.0318 19.2181 29.0844 19.2181 29.1221C19.2181 29.1597 19.2332 29.1898 19.3011 29.25L25.7348 35.4055C25.8177 35.4883 25.8781 35.556 25.8781 35.6162C25.8781 35.6839 25.7876 35.7216 25.6744 35.7216H19.8517C19.3991 35.7216 19.0446 35.6538 18.7957 35.4206L14.8887 31.6806C14.8435 31.6355 14.8133 31.6204 14.7756 31.6204C14.7308 31.6243 14.6872 31.6371 14.6474 31.658L8.12319 35.4206C7.73099 35.6463 7.45946 35.714 7.06725 35.714H1.05594C0.422376 35.714 0 35.3077 0 34.7057V27.3386C0 26.4206 0.203646 25.9089 1.05594 25.4197L6.07165 22.5376C6.12445 22.5075 6.16216 22.5 6.20742 22.5C6.2753 22.5 6.32055 22.5753 6.32055 22.7333V32.5911C6.32055 32.689 6.35072 32.7416 6.42615 32.7416C6.46386 32.7416 6.51666 32.7115 6.56945 32.6814L23.5097 22.9365C23.9095 22.7032 24.1584 22.6355 24.626 22.6355H33.7448C34.3784 22.6355 34.8008 23.0418 34.8008 23.6438L34.8158 34.4724Z" fill="black"/>
</svg>
