<svg width="60" height="60" viewBox="0 0 60 60" fill="none" xmlns="http://www.w3.org/2000/svg">
<circle cx="30" cy="30" r="26.25" fill="#FF5502"/>
<path d="M44.8692 39.375H29.5203V20.8321C30.9424 19.5335 32.7843 18.75 34.7965 18.75C39.2492 18.75 42.8683 22.5867 42.9492 27.3526C43.5497 27.1243 44.1959 27 44.8692 27C48.048 27 50.625 29.7702 50.625 33.1875C50.625 36.6048 48.048 39.375 44.8692 39.375Z" fill="white"/>
<path d="M28.125 22.5H26.25V39.375H28.125V22.5Z" fill="white"/>
<path d="M22.5 24.375H24.375V39.375H22.5V24.375Z" fill="white"/>
<path d="M20.625 28.125H18.75V39.375H20.625V28.125Z" fill="white"/>
<path d="M15 26.25H16.875V39.375H15V26.25Z" fill="white"/>
<path d="M13.125 30H11.25V39.375H13.125V30Z" fill="white"/>
</svg>
